<?xml version="1.0" encoding="UTF-8"?>
<svg width="133px" height="30px" viewBox="0 0 133 30" version="1.1" xmlns="http://www.w3.org/2000/svg" xmlns:xlink="http://www.w3.org/1999/xlink">
    <!-- Generator: Sketch 62 (91390) - https://sketch.com -->
    <title>knowit</title>
    <desc>Created with Sketch.</desc>
    <g id="Page-1" stroke="none" stroke-width="1" fill="none" fill-rule="evenodd">
        <g id="Lottis---generator" transform="translate(-834.000000, -35.000000)" fill="#333333">
            <path d="M894.224586,42.2110202 C900.523001,42.2110202 905.456148,47.1945952 905.456148,53.5475235 C905.456148,59.9657889 900.475904,65 894.135321,65 C887.847859,65 882.930046,60.0158805 882.930046,53.6711193 C882.930046,47.2452313 887.902075,42.2110202 894.224586,42.2110202 Z M956.706547,37.2503131 C957.22571,37.2503131 957.520341,37.5454182 957.520341,38.1007822 L957.520341,38.1007822 L957.520341,42.6504111 L962.655567,42.6504111 C963.20266,42.6504111 963.501672,42.9471497 963.501672,43.4660339 L963.501672,43.4660339 L963.501672,45.629231 C963.501672,46.1551934 963.20266,46.451932 962.655567,46.451932 L962.655567,46.451932 L957.520341,46.451932 L957.520341,58.2501497 C957.520341,60.2902956 958.417376,61.1630883 960.530174,61.1630883 C962.198287,61.1630883 963.20266,59.7060745 963.20266,58.307864 L963.20266,58.307864 L963.20266,54.2547959 C963.20266,53.7135883 963.501672,53.4184831 964.036717,53.4184831 L964.036717,53.4184831 L966.161562,53.4184831 C966.704822,53.4184831 967,53.7135883 967,54.2547959 L967,54.2547959 L967,58.6530609 C967,62.4681936 964.338467,64.9215957 960.193375,64.9215957 C956.209837,64.9215957 953.626616,62.3816222 953.626616,58.4521498 L953.626616,58.4521498 L953.626616,46.451932 L951.283262,46.451932 C950.737264,46.451932 950.446467,46.1551934 950.446467,45.629231 L950.446467,45.629231 L950.446467,43.4660339 C950.446467,42.9471497 950.737264,42.6504111 951.283262,42.6504111 L951.283262,42.6504111 L953.626616,42.6504111 L953.626616,38.1007822 C953.626616,37.5454182 953.905365,37.2503131 954.457387,37.2503131 L954.457387,37.2503131 Z M922.723256,42.6079421 C923.133987,42.6079421 923.517883,42.8682009 923.653698,43.2787346 L923.653698,43.2787346 L928.765923,58.0764624 L932.384184,46.451932 L930.682117,46.451932 C930.130096,46.451932 929.852442,46.1551934 929.852442,45.629231 L929.852442,45.629231 L929.852442,43.4660339 C929.852442,42.9471497 930.130096,42.6504111 930.682117,42.6504111 L930.682117,42.6504111 L938.275702,42.6504111 C938.80308,42.6504111 939.102092,42.9471497 939.102092,43.4660339 L939.102092,43.4660339 L939.102092,45.629231 C939.102092,46.1551934 938.80308,46.451932 938.275702,46.451932 L938.275702,46.451932 L936.476703,46.451932 L930.441155,63.9981669 C930.313007,64.3945444 929.937326,64.6526253 929.534263,64.6526253 L929.534263,64.6526253 L927.897912,64.6526253 C927.481706,64.6526253 927.093976,64.3792991 926.966376,63.9818327 L926.966376,63.9818327 L921.962583,49.5946387 L916.936885,63.9818327 C916.792856,64.3792991 916.416627,64.6526253 916.005896,64.6526253 L916.005896,64.6526253 L914.368999,64.6526253 C913.965935,64.6526253 913.593539,64.3945444 913.453891,63.9981669 L913.453891,63.9981669 L907.438059,46.451932 L905.642893,46.451932 C905.099634,46.451932 904.792955,46.1551934 904.792955,45.629231 L904.792955,45.629231 L904.792955,43.4660339 C904.792955,42.9471497 905.099634,42.6504111 905.642893,42.6504111 L905.642893,42.6504111 L913.310409,42.6504111 C913.849835,42.6504111 914.143918,42.9471497 914.143918,43.4660339 L914.143918,43.4660339 L914.143918,45.629231 C914.143918,46.1551934 913.849835,46.451932 913.310409,46.451932 L913.310409,46.451932 L911.61108,46.451932 L915.206889,58.063395 L920.295565,43.2787346 C920.41988,42.8682009 920.79118,42.6079421 921.210673,42.6079421 L921.210673,42.6079421 Z M839.67739,37.2633805 C840.221197,37.2633805 840.515828,37.5606635 840.515828,38.1007822 L840.515828,38.1007822 L840.515828,54.0446288 C840.515828,54.0446288 848.539356,46.015789 850.324587,44.22765 L850.646084,43.9054248 C851.786272,42.7527723 851.911134,42.6373437 852.911126,42.6373437 L852.911126,42.6373437 L856.087989,42.6373437 C856.615367,42.6373437 856.906164,42.9319044 856.906164,43.4660339 L856.906164,43.4660339 L856.906164,45.6657108 C856.906164,46.1769724 856.627415,46.451932 856.087989,46.451932 L856.087989,46.451932 L853.120324,46.451932 L847.031108,52.5892484 L853.690966,60.753099 L856.068274,60.753099 C856.615367,60.753099 856.899045,61.0482041 856.899045,61.5894118 L856.899045,61.5894118 L856.899045,63.7242963 C856.899045,64.2785713 856.615367,64.5600646 856.068274,64.5600646 L856.068274,64.5600646 L853.194256,64.5600646 C851.911134,64.5600646 851.911134,64.5600646 851.019027,63.463493 L851.019027,63.463493 L844.317002,55.3214214 L840.515828,59.1659558 L840.515828,60.753099 L842.254039,60.753099 C842.81318,60.753099 843.106168,61.0482041 843.106168,61.5894118 L843.106168,61.5894118 L843.106168,63.7242963 C843.106168,64.2785713 842.81318,64.5600646 842.254039,64.5600646 L842.254039,64.5600646 L834.845009,64.5600646 C834.31106,64.5600646 834.007119,64.2638705 834.007119,63.7242963 L834.007119,63.7242963 L834.007119,61.5817891 C834.007119,61.0482041 834.31106,60.753099 834.845009,60.753099 L834.845009,60.753099 L836.613889,60.753099 L836.613889,41.0790577 L834.830223,41.0790577 C834.291345,41.0790577 834,40.7763299 834,40.2351222 L834,40.2351222 L834,38.1007822 C834,37.5606635 834.291345,37.2633805 834.830223,37.2633805 L834.830223,37.2633805 Z M871.450404,42.182163 C876.927357,42.182163 880.460735,45.7876731 880.460735,51.3772482 L880.460735,51.3772482 L880.460735,60.753099 L882.228518,60.753099 C882.767397,60.753099 883.062575,61.0482041 883.062575,61.5894118 L883.062575,61.5894118 L883.062575,63.7242963 C883.062575,64.2638705 882.767397,64.5600646 882.228518,64.5600646 L882.228518,64.5600646 L874.828251,64.5600646 C874.289372,64.5600646 873.994742,64.2638705 873.994742,63.7242963 L873.994742,63.7242963 L873.994742,61.5894118 C873.994742,61.0482041 874.289372,60.753099 874.828251,60.753099 L874.828251,60.753099 L876.597678,60.753099 L876.597678,51.7311566 C876.597678,48.0603096 874.552788,45.8606327 871.16344,45.8606327 C867.688112,45.8606327 865.159108,48.4555981 865.159108,52.0398737 L865.159108,52.0398737 L865.159108,60.753099 L866.916487,60.753099 C867.447698,60.753099 867.75821,61.0482041 867.75821,61.5894118 L867.75821,61.5894118 L867.75821,63.7242963 C867.75821,64.2638705 867.447698,64.5600646 866.916487,64.5600646 L866.916487,64.5600646 L859.536482,64.5600646 C858.980627,64.5600646 858.698044,64.2638705 858.698044,63.7242963 L858.698044,63.7242963 L858.698044,61.5894118 C858.698044,61.0482041 858.980627,60.753099 859.536482,60.753099 L859.536482,60.753099 L861.288384,60.753099 L861.288384,46.451932 L859.536482,46.451932 C858.980627,46.451932 858.698044,46.1551934 858.698044,45.6156192 L858.698044,45.6156192 L858.698044,43.4660339 C858.698044,42.9319044 858.980627,42.6504111 859.536482,42.6504111 L859.536482,42.6504111 L864.321766,42.6504111 C864.865573,42.6504111 865.159108,42.9471497 865.159108,43.4660339 L865.159108,43.4660339 L865.159108,44.4820233 C866.800387,42.9553168 868.925233,42.182163 871.450404,42.182163 Z M946.40926,42.6504111 C946.905676,42.6504111 947.195841,42.9032534 947.237544,43.3502687 L947.242769,43.4660339 L947.242769,60.753099 L949.003982,60.753099 C949.504947,60.753099 949.794995,61.0045495 949.836654,61.4689087 L949.841872,61.5894118 L949.841872,63.7242963 C949.841872,64.2223648 949.590359,64.5130562 949.124807,64.5548308 L949.003982,64.5600646 L940.138228,64.5600646 C939.636252,64.5600646 939.347059,64.3076862 939.305538,63.844469 L939.300338,63.7242963 L939.300338,61.5894118 C939.300338,61.0898355 939.550917,60.799956 940.017187,60.7583152 L940.138228,60.753099 L943.340282,60.753099 L943.340282,46.451932 L941.564284,46.451932 C941.067869,46.451932 940.787503,46.1990896 940.747307,45.7465072 L940.742275,45.629231 L940.742275,43.4660339 C940.742275,42.9870638 940.984456,42.6973776 941.444695,42.6556447 L941.564284,42.6504111 L946.40926,42.6504111 Z M894.135321,45.9548268 C890.051565,45.9548268 886.971634,49.2135066 886.971634,53.5475235 C886.971634,57.8815405 890.147949,61.2790613 894.224586,61.2790613 C898.331891,61.2790613 901.430441,57.9969691 901.430441,53.6711193 C901.430441,49.3441805 898.230577,45.9548268 894.135321,45.9548268 Z M945.225809,35 C946.599292,35 947.693478,36.1031053 947.693478,37.4446905 C947.693478,38.7928093 946.599292,39.8735912 945.225809,39.8735912 C943.899424,39.8735912 942.790451,38.7928093 942.790451,37.4446905 C942.790451,36.1031053 943.899424,35 945.225809,35 Z" id="knowit"></path>
        </g>
    </g>
</svg>