<?xml version="1.0" encoding="UTF-8"?>
<svg width="150px" height="38px" viewBox="0 0 150 38" version="1.1" xmlns="http://www.w3.org/2000/svg" xmlns:xlink="http://www.w3.org/1999/xlink">
    <!-- Generator: Sketch 62 (91390) - https://sketch.com -->
    <title>Vipps Logo</title>
    <desc>Created with Sketch.</desc>
    <g id="Page-1" stroke="none" stroke-width="1" fill="none" fill-rule="evenodd">
        <g id="Lottis---generator" transform="translate(-824.000000, -808.000000)" fill="#FFFFFF" fill-rule="nonzero">
            <g id="Group-8" transform="translate(740.000000, 780.000000)">
                <path d="M104.45236,29 L98.025642,47.8765817 L91.5476395,29.0005257 L84,29.0005257 L95.200314,57 L100.799686,57 L112,29 L104.45236,29 Z M136.999449,36.5 C136.999449,38.5640278 135.153337,40 132.999173,40 C130.84556,40 129,38.5640278 129,36.5 C129,34.4354861 130.84556,33 132.999173,33 C135.153337,33 137,34.4354861 137,36.5 M127.768031,51.5396035 C132.46435,51.5396035 135.127002,49.3460418 137.645024,46.1732385 C138.999761,44.4468007 140.790991,44.1187017 142.001618,45.0529498 C143.308492,46.0332024 143.356876,47.8066559 142.001618,49.5330936 C138.371296,54.2002893 133.723361,57 127.768031,57 C121.281002,57 115.713781,53.5471245 111.695871,47.6201096 C110.583051,46.0797126 110.872831,44.3062591 112.082939,43.4660426 C113.390333,42.5793158 115.181562,42.9524084 116.343806,44.6328415 C119.248376,48.7393872 122.977025,51.5396035 127.768551,51.5396035 M154,42.4521634 C154,48.0557337 157.282766,51 160.952014,51 C164.427243,51 168,48.2455371 168,42.4521634 C168,36.7534342 164.427243,34 160.999741,34 C157.282766,34 154,36.6114675 154,42.4521634 L154,42.4521634 Z M154.889722,28.7666215 L154.889722,32.5581497 C156.795949,29.9667091 159.776069,28 164.125206,28 C169.59865,28 176,32.5092938 176,42.1541723 C176,52.2299181 169.843361,57.1243418 163.538635,57.1243418 C160.167292,57.1243418 157.186647,55.8281017 154.889722,52.7569379 L154.889722,66 L148,66 L148,28.7666215 L154.889722,28.7666215 Z M187.000519,42.4521634 C187.000519,48.0557337 190.282887,51 193.952272,51 C197.427629,51 201,48.2455371 201,42.4521634 C201,36.7534342 197.427629,34 194,34 C190.282887,34 187,36.6114675 187,42.4521634 L187.000519,42.4521634 Z M196.125206,28 C201.59865,28 208,32.5092938 208,42.1541723 C208,52.2299181 201.842836,57.1243418 195.538635,57.1243418 C192.167292,57.1243418 189.186647,55.8281017 186.889722,52.7569379 L186.889722,66 L180,66 L180,28.7666215 L186.890248,28.7666215 L186.890248,32.5581497 C188.795949,29.9667091 191.776069,28 196.125206,28 Z M222.595543,28 C228.201449,28 232.308258,30.5792958 234,37.0772168 L227.862893,38.0325499 C227.766311,34.735978 225.688761,33.733551 222.740936,33.733551 C220.421411,33.733551 218.730708,34.735978 218.730708,36.3128469 C218.730708,37.5548834 219.599946,38.8450488 222.209735,39.3227153 L226.896036,40.1817906 C231.486274,41.0429359 233.95119,44.004158 233.95119,48.0656174 C233.95119,54.0372254 228.491195,57 223.368718,57 C217.957014,57 211.965819,54.2281885 211,47.4922105 L217.136068,46.5363599 C217.474624,50.0244124 219.649275,51.266449 223.127783,51.266449 C225.785343,51.266449 227.573148,50.3111159 227.573148,48.6390242 C227.573148,47.1578957 226.751682,46.0586934 223.852147,45.5334154 L219.599946,44.769563 C215.106809,43.9570641 212.353186,40.8033264 212.353186,36.7905134 C212.353186,30.5792958 218.053596,28 222.595543,28 Z" id="Vipps-Logo"></path>
            </g>
        </g>
    </g>
</svg>