<?xml version="1.0" encoding="UTF-8"?>
<svg width="140px" height="150px" viewBox="0 0 140 150" version="1.1" xmlns="http://www.w3.org/2000/svg" xmlns:xlink="http://www.w3.org/1999/xlink">
    <!-- Generator: Sketch 62 (91390) - https://sketch.com -->
    <title>Lodd</title>
    <desc>Created with Sketch.</desc>
    <g id="Page-1" stroke="none" stroke-width="1" fill="none" fill-rule="evenodd">
        <g id="Lottis---generator" transform="translate(-486.000000, -492.000000)" fill="#D4F3FE">
            <g id="Group" transform="translate(486.000000, 474.000000)">
                <path d="M140,18 L140,168 L0,168 L0,167 C1.1045695,167 2,166.104569 2,165 C2,163.895431 1.1045695,163 0,163 L0,163 L0,161 C1.1045695,161 2,160.104569 2,159 C2,157.895431 1.1045695,157 0,157 L0,157 L0,155 C1.1045695,155 2,154.104569 2,153 C2,151.895431 1.1045695,151 0,151 L0,151 L0,149 C1.1045695,149 2,148.104569 2,147 C2,145.895431 1.1045695,145 0,145 L0,145 L0,143 C1.1045695,143 2,142.104569 2,141 C2,139.895431 1.1045695,139 0,139 L0,139 L0,137 C1.1045695,137 2,136.104569 2,135 C2,133.895431 1.1045695,133 0,133 L0,133 L0,131 C1.1045695,131 2,130.104569 2,129 C2,127.895431 1.1045695,127 0,127 L0,127 L0,125 C1.1045695,125 2,124.104569 2,123 C2,121.895431 1.1045695,121 0,121 L0,121 L0,119 C1.1045695,119 2,118.104569 2,117 C2,115.895431 1.1045695,115 0,115 L0,115 L0,113 C1.1045695,113 2,112.104569 2,111 C2,109.895431 1.1045695,109 0,109 L0,109 L0,107 C1.1045695,107 2,106.104569 2,105 C2,103.895431 1.1045695,103 0,103 L0,103 L0,101 C1.1045695,101 2,100.104569 2,99 C2,97.8954305 1.1045695,97 0,97 L0,97 L0,95 C1.1045695,95 2,94.1045695 2,93 C2,91.8954305 1.1045695,91 0,91 L0,91 L0,89 C1.1045695,89 2,88.1045695 2,87 C2,85.8954305 1.1045695,85 0,85 L0,85 L0,83 C1.1045695,83 2,82.1045695 2,81 C2,79.8954305 1.1045695,79 0,79 L0,79 L0,77 C1.1045695,77 2,76.1045695 2,75 C2,73.8954305 1.1045695,73 0,73 L0,73 L0,71 C1.1045695,71 2,70.1045695 2,69 C2,67.8954305 1.1045695,67 0,67 L0,67 L0,65 C1.1045695,65 2,64.1045695 2,63 C2,61.8954305 1.1045695,61 0,61 L0,61 L0,59 C1.1045695,59 2,58.1045695 2,57 C2,55.8954305 1.1045695,55 0,55 L0,55 L0,53 C1.1045695,53 2,52.1045695 2,51 C2,49.8954305 1.1045695,49 0,49 L0,49 L0,47 C1.1045695,47 2,46.1045695 2,45 C2,43.8954305 1.1045695,43 0,43 L0,43 L0,41 C1.1045695,41 2,40.1045695 2,39 C2,37.8954305 1.1045695,37 0,37 L0,37 L0,35 C1.1045695,35 2,34.1045695 2,33 C2,31.8954305 1.1045695,31 0,31 L0,31 L0,29 C1.1045695,29 2,28.1045695 2,27 C2,25.8954305 1.1045695,25 0,25 L0,25 L0,23 C1.1045695,23 2,22.1045695 2,21 C2,19.8954305 1.1045695,19 0,19 L0,19 L0,18 L140,18 Z" id="Lodd"></path>
            </g>
        </g>
    </g>
</svg>